<svg version="1.0" xmlns="http://www.w3.org/2000/svg" width="158.000000pt" height="150.000000pt"
    viewBox="0 0 158.000000 150.000000" preserveAspectRatio="xMidYMid meet">
    <g transform="translate(0.000000,150.000000) scale(0.100000,-0.100000)" fill="white"
        stroke="none">
        <path d="M626 1480 c-238 -43 -433 -191 -536 -405 -62 -129 -75 -184 -75 -325
0 -141 13 -196 77 -329 42 -88 62 -116 131 -186 84 -83 159 -134 257 -173 99
-38 143 -46 270 -46 145 -1 221 18 355 87 121 62 237 181 298 307 65 132 81
201 81 340 0 139 -16 208 -81 340 -85 174 -247 308 -448 370 -79 24 -249 35
-329 20z m232 -270 c144 -29 289 -105 332 -176 25 -40 25 -100 0 -141 -26 -43
-127 -117 -195 -142 -133 -50 -325 -85 -340 -62 -10 18 -5 21 82 43 112 28
212 79 261 132 36 39 42 52 42 88 0 77 -49 131 -170 187 -96 44 -211 64 -377
65 -210 1 -182 14 62 29 83 5 213 -5 303 -23z m-327 -136 c-17 -119 15 -262
83 -374 69 -113 79 -141 84 -227 5 -89 -8 -142 -54 -220 -31 -53 -41 -52 -18
2 25 60 29 160 10 235 -9 36 -43 119 -76 185 -71 144 -84 193 -78 288 5 64 43
195 54 184 2 -2 0 -35 -5 -73z" />
    </g>
</svg>
